Coordinates
version=1
nRows=6
nColumns=63
inDegrees=yes

Units are S.I. units (second, meters, Newtons, ...)
If the header above contains a line with 'inDegrees', this indicates whether rotational values are in degrees (yes) or radians (no).

endheader
time	pelvis_tilt	pelvis_list	pelvis_rotation	pelvis_tx	pelvis_ty	pelvis_tz	hip_flexion_r	hip_adduction_r	hip_rotation_r	knee_angle_r	knee_angle_r_beta	ankle_angle_r	subtalar_angle_r	mtp_angle_r	hip_flexion_l	hip_adduction_l	hip_rotation_l	knee_angle_l	knee_angle_l_beta	ankle_angle_l	subtalar_angle_l	mtp_angle_l	L5_S1_Flex_Ext	L5_S1_Lat_Bending	L5_S1_axial_rotation	L4_L5_Flex_Ext	L4_L5_Lat_Bending	L4_L5_axial_rotation	L3_L4_Flex_Ext	L3_L4_Lat_Bending	L3_L4_axial_rotation	L2_L3_Flex_Ext	L2_L3_Lat_Bending	L2_L3_axial_rotation	L1_L2_Flex_Ext	L1_L2_Lat_Bending	L1_L2_axial_rotation	L1_T12_Flex_Ext	L1_T12_Lat_Bending	L1_T12_axial_rotation	Abs_r3	Abs_r2	Abs_r1	Abs_t1	Abs_t2	neck_flexion	neck_bending	neck_rotation	arm_flex_r	arm_add_r	arm_rot_r	elbow_flex_r	pro_sup_r	wrist_flex_r	wrist_dev_r	arm_flex_l	arm_add_l	arm_rot_l	elbow_flex_l	pro_sup_l	wrist_flex_l	wrist_dev_l
      5.04166667	      2.27505424	    -10.79897916	    115.43854151	      0.10269723	      0.50608577	      0.85625012	     14.12803368	      3.11114632	    -25.36845489	      9.26813413	      0.16175946	     28.40648888	     15.99852961	      0.00000000	     20.79631219	     -2.87126092	      2.75890880	     17.61470231	      0.30743455	     27.72121732	     11.77607395	      0.00000000	     -0.52250890	     -1.14884136	      2.25123994	     -0.97035128	     -1.52795901	      2.39194243	     -0.85842987	     -2.79329288	      2.39194243	     -0.59717542	     -2.79329288	      1.96983495	     -0.48520176	     -2.34271730	      1.82913245	     -0.29856159	     -1.77955526	      1.68842995	     -3.73222882	    -12.99592320	     12.52072117	      0.00000000	      0.00000000	     -2.71645971	     -4.99799968	     -6.06214394	     80.96170009	    -13.95825445	     66.54455545	     42.19424003	     87.40588693	      7.48121479	     28.41835711	      8.01937432	    -11.77365541	     30.50821756	     75.49345463	     87.91992621	    -12.26453990	      2.20152853
      5.06250000	      1.97240663	    -11.11086832	    114.87843085	      0.10318485	      0.50584135	      0.85642864	     14.29198100	      2.84297958	    -24.75991323	      9.14562386	      0.15962125	     28.42174321	     16.13419407	      0.00000000	     20.65720150	     -2.54447897	      2.62314210	     17.13800115	      0.29911455	     27.44714966	     11.01714684	      0.00000000	     -0.50129101	     -1.20127912	      2.45534499	     -0.93094754	     -1.59770123	      2.60880405	     -0.82357101	     -2.92079006	      2.60880405	     -0.57292550	     -2.92079006	      2.14842686	     -0.46549883	     -2.44964839	      1.99496780	     -0.28643768	     -1.86078136	      1.84150874	     -3.58067158	    -13.58910970	     13.65589221	      0.00000000	      0.00000000	     -2.69265640	     -4.09566329	     -4.35089217	     79.03389647	    -12.67025621	     65.69502022	     41.11298169	     86.40675261	      4.31603330	     27.30269452	      7.59470366	    -12.32211108	     30.05800545	     75.69198616	     88.18300547	    -11.67436895	     -2.09751491
      5.08333333	      1.85196968	    -11.31454983	    114.57903082	      0.10335481	      0.50542133	      0.85683499	     14.38700587	      2.77126030	    -24.22551476	      8.96178367	      0.15641263	     28.39251122	     15.97045736	      0.00000000	     20.60825192	     -2.35368778	      2.81990701	     16.79227042	      0.29308041	     27.34738569	     10.36729539	      0.00000000	     -0.48305561	     -1.23304049	      2.64839012	     -0.89708257	     -1.63994385	      2.81391450	     -0.79361206	     -2.99801464	      2.81391450	     -0.55208426	     -2.99801464	      2.31734135	     -0.44856544	     -2.51441616	      2.15181697	     -0.27601798	     -1.90997972	      1.98629259	     -3.45041792	    -13.94840062	     14.72955133	      0.00000000	      0.00000000	     -2.76041439	     -3.42260997	     -3.75050033	     77.21234349	    -12.24707909	     64.88488812	     41.03752838	     82.73287072	     -0.02177748	     27.63895098	      7.86592690	    -12.90216568	     30.73015094	     76.12868226	     88.39768268	    -11.89138053	     -4.43182440
      5.10416667	      1.87105668	    -11.29533878	    114.69855484	      0.10254636	      0.50503707	      0.85837424	     14.39426214	      2.72651739	    -24.27690553	      8.90623139	      0.15544306	     28.46037434	     15.93156715	      0.00000000	     20.67537639	     -2.26904804	      2.89017635	     16.78858137	      0.29301602	     27.34283287	     10.41115126	      0.00000000	     -0.49569283	     -1.22389767	      2.72019622	     -0.92055115	     -1.62778390	      2.89020848	     -0.81437375	     -2.97578479	      2.89020848	     -0.56652733	     -2.97578479	      2.38017169	     -0.46030036	     -2.49577213	      2.21015943	     -0.28323888	     -1.89581749	      2.04014716	     -3.54068430	    -13.84497522	     15.12891530	      0.00000000	      0.00000000	     -2.75321039	     -3.33172892	     -3.59529786	     76.68089515	    -12.23272447	     65.01520993	     40.94214404	     82.59242394	     -0.05416607	     27.68277754	      8.05791809	    -12.82328003	     30.75388710	     76.74306244	     88.46298668	    -11.86327265	     -4.61648364
      5.12500000	      1.48275752	    -11.45791833	    113.48059341	      0.10364751	      0.50471861	      0.85827248	     14.41571879	      2.58835506	    -23.06194253	      8.81059595	      0.15377391	     28.53690091	     15.93129290	      0.00000000	     20.38142648	     -2.16008083	      2.20605312	     16.50649866	      0.28809275	     27.35373028	      9.80556002	      0.00000000	     -0.47882616	     -1.28162292	      2.94499312	     -0.88922806	     -1.70455849	      3.12905519	     -0.78666350	     -3.11613798	      3.12905519	     -0.54725042	     -3.11613798	      2.57686898	     -0.44463797	     -2.61348547	      2.39280691	     -0.27360127	     -1.98523391	      2.20874484	     -3.42020737	    -14.49797485	     16.37916822	      0.00000000	      0.00000000	     -2.83943603	     -1.85784992	     -2.46038200	     76.69856821	    -13.28835554	     71.27383189	     44.56666647	     12.49250949	    -26.50770700	     17.11584613	      8.41262989	    -13.24987047	     31.23815389	     77.27486293	     88.54565559	    -12.82258422	     -5.05061487
      5.14583333	      1.19923614	    -11.45489214	    112.51163270	      0.10397376	      0.50453299	      0.85891337	     14.40289216	      2.47685476	    -22.21522056	      8.84635545	      0.15439803	     28.62398821	     15.92524746	      0.00000000	     20.10264653	     -2.11581580	      1.55142458	     16.34538790	      0.28528084	     27.39428853	      9.51190839	      0.00000000	     -0.48056346	     -1.30679789	      3.10522109	     -0.89245440	     -1.73804120	      3.29929740	     -0.78951770	     -3.17734840	      3.29929740	     -0.54923598	     -3.17734840	      2.71706845	     -0.44625123	     -2.66482226	      2.52299213	     -0.27459396	     -2.02422994	      2.32891582	     -3.43261672	    -14.78275912	     17.27030812	      0.00000000	      0.00000000	     -3.02233552	     -1.17776845	     -1.95733939	     77.35179316	    -14.15820035	     70.12649226	     44.44518967	     27.04271485	    -20.60117708	     22.64907430	      8.63246312	    -13.08519543	     31.11773111	     77.52794202	     88.42366795	    -13.25286691	     -4.52407227
